<svg xmlns="http://www.w3.org/2000/svg" xmlns:xlink="http://www.w3.org/1999/xlink" width="128" height="128" x="0" y="0" version="1.1" viewBox="0 0 128 128" xml:space="preserve" style="enable-background:new 0 0 128 128"><style type="text/css">.st0{fill:url(#SVGID_1_)}.st4{fill:#fff}</style><g id="BASE"><linearGradient id="SVGID_1_" x1="64" x2="64" y1="7.034" y2="120.789" gradientUnits="userSpaceOnUse"><stop offset="0" style="stop-color:#4387fd"/><stop offset="1" style="stop-color:#4683ea"/></linearGradient><path d="M27.7906,115.2166L1.54,69.7493c-2.0541-3.5578-2.0541-7.9412,0-11.499l26.2506-45.4672 c2.0541-3.5578,5.8503-5.7495,9.9585-5.7495h52.5012c4.1082,0,7.9044,2.1917,9.9585,5.7495l26.2506,45.4672 c2.0541,3.5578,2.0541,7.9412,0,11.499l-26.2506,45.4672c-2.0541,3.5578-5.8503,5.7495-9.9585,5.7495H37.7491 C33.6409,120.9661,29.8448,118.7744,27.7906,115.2166z" class="st0"/></g><g id="shadow"><g><defs><path id="SVGID_5_" d="M27.7911,115.2166L1.5406,69.7493c-2.0541-3.5578-2.0541-7.9412,0-11.499l26.2505-45.4672 c2.0541-3.5578,5.8502-5.7495,9.9585-5.7495h52.501c4.1082,0,7.9044,2.1917,9.9585,5.7495l26.2505,45.4672 c2.0541,3.5578,2.0541,7.9412,0,11.499l-26.2505,45.4672c-2.0541,3.5578-5.8502,5.7495-9.9585,5.7495h-52.501 C33.6413,120.9661,29.8452,118.7744,27.7911,115.2166z"/></defs><clipPath id="SVGID_2_"><use xlink:href="#SVGID_5_" style="overflow:visible"/></clipPath><polygon style="opacity:.07;clip-path:url(#SVGID_2_)" points="120.167 82.083 83.958 45.875 64.667 39.25 44.208 54.708 57 67.5 44.167 68.75 56.146 80.729 44.02 82.249 84.542 122.771 97.563 121.281"/></g></g><g id="art"><g><path d="M64,34.2303L44.0003,45.7771v8.9299L64,66.2539L83.9997,54.707v-8.9299L64,34.2303z M75.9461,50.1103 l-0.0084-0.0049L64,56.9977l-11.9378-6.8923l-0.0084,0.0049v-0.0097l0.0084,0.0048L64,43.2132l11.9377,6.8922l0.0084-0.0048 V50.1103z" class="st4"/><polygon points="44 59.752 44 68.682 64 80.229 84 68.682 84 59.752 64 71.299" class="st4"/><polygon points="44 73.293 44 82.223 64 93.769 84 82.223 84 73.293 64 84.84" class="st4"/></g></g></svg>