<svg xmlns="http://www.w3.org/2000/svg" xmlns:xlink="http://www.w3.org/1999/xlink" width="128" height="114" version="1.1" viewBox="0 0 128 114"><title>Logs_128px</title><desc>Created with Sketch.</desc><defs><linearGradient id="linearGradient-1" x1="50%" x2="50%" y1="0%" y2="99.845%"><stop offset="0%" stop-color="#4387FD"/><stop offset="100%" stop-color="#4683EA"/></linearGradient></defs><g id="Page-1" fill="none" fill-rule="evenodd" stroke="none" stroke-width="1"><g id="Logs_128px" transform="translate(-1.000000, 0.000000)"><path id="Shape" fill="url(#linearGradient-1)" d="M28.7906,108.2166 L2.54,62.7493 C0.4859,59.1915 0.4859,54.8081 2.54,51.2503 L28.7906,5.7831 C30.8447,2.2253 34.6409,0.0336 38.7491,0.0336 L91.2503,0.0336 C95.3585,0.0336 99.1547,2.2253 101.2088,5.7831 L127.4594,51.2503 C129.5135,54.8081 129.5135,59.1915 127.4594,62.7493 L101.2088,108.2165 C99.1547,111.7743 95.3585,113.966 91.2503,113.966 L38.7491,113.966 C34.6409,113.9661 30.8448,111.7744 28.7906,108.2166 L28.7906,108.2166 Z"/><path id="Shape" fill="#000" d="M95,31 L77.4,39 L61,39 L50,28 L43.2308,39 L43,39 L35,43 L42.65,50.65 L41,82 L72.9661,113.9661 L91.2503,113.9661 C95.3585,113.9661 99.1547,111.7744 101.2088,108.2166 L127.1995,63.1996 L95,31 L95,31 Z" opacity=".07"/><rect id="Rectangle-path" width="37" height="11" x="58" y="31" fill="#FFF"/><rect id="Rectangle-path" width="16" height="3" x="43" y="57" fill="#FFF"/><rect id="Rectangle-path" width="37" height="11" x="58" y="53" fill="#FFF"/><rect id="Rectangle-path" width="16" height="3" x="43" y="79" fill="#FFF"/><rect id="Rectangle-path" width="3" height="39" x="41" y="43" fill="#FFF"/><g id="Group" fill="#FFF" transform="translate(35.000000, 28.000000)"><rect id="Rectangle-path" width="15" height="15" x="0" y="0"/><rect id="Rectangle-path" width="37" height="11" x="23" y="47"/></g></g></g></svg>