<svg xmlns="http://www.w3.org/2000/svg" xmlns:xlink="http://www.w3.org/1999/xlink" width="128" height="128" x="0" y="0" version="1.1" viewBox="0 0 128 128" xml:space="preserve" style="enable-background:new 0 0 128 128"><g id="BASE"><linearGradient id="SVGID_1_" x1="64" x2="64" y1="7.034" y2="120.789" gradientUnits="userSpaceOnUse"><stop offset="0" style="stop-color:#4387fd"/><stop offset="1" style="stop-color:#4683ea"/></linearGradient><path style="fill:url(#SVGID_1_)" d="M27.7906,115.2166L1.54,69.7493c-2.0541-3.5578-2.0541-7.9412,0-11.499l26.2506-45.4672 c2.0541-3.5578,5.8503-5.7495,9.9585-5.7495h52.5012c4.1082,0,7.9044,2.1917,9.9585,5.7495l26.2506,45.4672 c2.0541,3.5578,2.0541,7.9412,0,11.499l-26.2506,45.4672c-2.0541,3.5578-5.8503,5.7495-9.9585,5.7495H37.7491 C33.6409,120.9661,29.8448,118.7744,27.7906,115.2166z"/></g><g id="shadow"><g><defs><path id="SVGID_5_" d="M27.7908,115.2166L1.5403,69.7493c-2.0541-3.5578-2.0541-7.9412,0-11.499l26.2505-45.4672 c2.0541-3.5578,5.8502-5.7495,9.9585-5.7495h52.501c4.1082,0,7.9044,2.1917,9.9585,5.7495l26.2505,45.4672 c2.0541,3.5578,2.0541,7.9412,0,11.499l-26.2505,45.4672c-2.0541,3.5578-5.8502,5.7495-9.9585,5.7495h-52.501 C33.641,120.9661,29.8449,118.7744,27.7908,115.2166z"/></defs><clipPath id="SVGID_2_"><use xlink:href="#SVGID_5_" style="overflow:visible"/></clipPath><polygon style="opacity:.07;clip-path:url(#SVGID_2_)" points="126.281 74.656 96.594 44.969 49.312 53.875 30.906 69.26 36.864 75.219 31.406 80.193 76.041 124.828 97.667 124.791"/></g></g><g id="art"><g><g><path style="fill:#fff" d="M74.201,89.2986H54.0484c-0.5523,0-1-0.4477-1-1v-0.0231c0-0.5523,0.4477-1,1-1H74.201 c0.5523,0,1,0.4477,1,1v0.0231C75.201,88.8509,74.7533,89.2986,74.201,89.2986z"/></g><rect style="fill:#fff" width="7.744" height="8.781" x="60.253" y="79.506"/><g><path style="fill:#fff" d="M85.663,72.9689c-0.5011,0-0.9803-0.2034-1.3285-0.5642L70.7506,58.3304l-9.1328,9.6033 c-0.6623,0.6973-1.749,0.7686-2.4972,0.1641l-6.8988-5.5698l-7.3125,9.7058c-0.3491,0.4627-0.8949,0.7351-1.4746,0.7351H30.8959 v5.6917c0,1.3538,1.1077,2.4614,2.4614,2.4614h61.535c1.3537,0,2.4613-1.1076,2.4613-2.4614v-5.6917H85.663z"/><path style="fill:#fff" d="M42.5141,69.2768l7.9073-10.4953c0.3015-0.3996,0.7516-0.6599,1.2484-0.7211 c0.4958-0.0592,0.9973,0.0816,1.3858,0.3957l7.06,5.6999l9.2877-9.7665c0.3467-0.3647,0.8274-0.572,1.3309-0.5739 c0.0024,0,0.0044,0,0.0068,0c0.5011,0,0.9803,0.2034,1.3285,0.5642l14.3773,14.8969h10.9068V46.6625 c0-1.3538-1.1076-2.4614-2.4613-2.4614h-61.535c-1.3537,0-2.4614,1.1076-2.4614,2.4614v22.6143H42.5141z"/></g></g></g></svg>