<svg xmlns="http://www.w3.org/2000/svg" xmlns:xlink="http://www.w3.org/1999/xlink" width="128" height="128" x="0" y="0" version="1.1" viewBox="0 0 128 128" xml:space="preserve" style="enable-background:new 0 0 128 128"><g id="BASE"><linearGradient id="SVGID_1_" x1="64" x2="64" y1="7.034" y2="120.789" gradientUnits="userSpaceOnUse"><stop offset="0" style="stop-color:#4387fd"/><stop offset="1" style="stop-color:#4683ea"/></linearGradient><path style="fill:url(#SVGID_1_)" d="M27.7906,115.2166L1.54,69.7493c-2.0541-3.5578-2.0541-7.9412,0-11.499l26.2506-45.4672 c2.0541-3.5578,5.8503-5.7495,9.9585-5.7495h52.5012c4.1082,0,7.9044,2.1917,9.9585,5.7495l26.2506,45.4672 c2.0541,3.5578,2.0541,7.9412,0,11.499l-26.2506,45.4672c-2.0541,3.5578-5.8503,5.7495-9.9585,5.7495H37.7491 C33.6409,120.9661,29.8448,118.7744,27.7906,115.2166z"/></g><g id="shadow"><g><defs><path id="SVGID_5_" d="M27.7908,115.2166L1.5403,69.7493c-2.0541-3.5578-2.0541-7.9412,0-11.499l26.2505-45.4672 c2.0541-3.5578,5.8502-5.7495,9.9585-5.7495h52.501c4.1082,0,7.9044,2.1917,9.9585,5.7495l26.2505,45.4672 c2.0541,3.5578,2.0541,7.9412,0,11.499l-26.2505,45.4672c-2.0541,3.5578-5.8502,5.7495-9.9585,5.7495h-52.501 C33.641,120.9661,29.8449,118.7744,27.7908,115.2166z"/></defs><clipPath id="SVGID_2_"><use xlink:href="#SVGID_5_" style="overflow:visible"/></clipPath><polygon style="opacity:.07;clip-path:url(#SVGID_2_)" points="116.75 88.833 68.104 40.187 64.125 39.458 60.013 48.161 63.484 51.633 62.506 57.256 68.216 62.966 52.698 64.566 48.105 59.972 40.064 68.033 94.109 122.078 97.667 122.041"/></g></g><g id="art"><g><g id="icon_2_"><circle style="fill:#fff" cx="64" cy="44.098" r="5.689"/><circle style="fill:#fff" cx="64" cy="83.916" r="5.689"/><circle style="fill:#fff" cx="44.091" cy="64.007" r="5.689"/><circle style="fill:#fff" cx="83.909" cy="64.008" r="5.689"/><polygon style="fill:#fff" points="62.553 85.476 39.036 62.168 79.03 62.168 62.553 45.657 65.447 42.592 88.965 65.847 48.97 65.847 65.447 82.41"/><rect style="fill:#fff" width="2.453" height="13.49" x="62.506" y="70.752"/><rect style="fill:#fff" width="2.453" height="13.49" x="62.506" y="43.772"/></g></g></g></svg>