<svg xmlns="http://www.w3.org/2000/svg" xmlns:xlink="http://www.w3.org/1999/xlink" width="128" height="128" x="0" y="0" version="1.1" viewBox="0 0 128 128" xml:space="preserve" style="enable-background:new 0 0 128 128"><g id="BASE"><linearGradient id="SVGID_1_" x1="64" x2="64" y1="7.034" y2="120.789" gradientUnits="userSpaceOnUse"><stop offset="0" style="stop-color:#4387fd"/><stop offset="1" style="stop-color:#4683ea"/></linearGradient><path style="fill:url(#SVGID_1_)" d="M27.7906,115.2166L1.54,69.7493c-2.0541-3.5578-2.0541-7.9412,0-11.499l26.2506-45.4672 c2.0541-3.5578,5.8503-5.7495,9.9585-5.7495h52.5012c4.1082,0,7.9044,2.1917,9.9585,5.7495l26.2506,45.4672 c2.0541,3.5578,2.0541,7.9412,0,11.499l-26.2506,45.4672c-2.0541,3.5578-5.8503,5.7495-9.9585,5.7495H37.7491 C33.6409,120.9661,29.8448,118.7744,27.7906,115.2166z"/></g><g id="shadow"><g><defs><path id="SVGID_5_" d="M27.7911,115.2166L1.5406,69.7493c-2.0541-3.5578-2.0541-7.9412,0-11.499l26.2505-45.4672 c2.0541-3.5578,5.8502-5.7495,9.9585-5.7495h52.501c4.1082,0,7.9044,2.1917,9.9585,5.7495l26.2505,45.4672 c2.0541,3.5578,2.0541,7.9412,0,11.499l-26.2505,45.4672c-2.0541,3.5578-5.8503,5.7495-9.9585,5.7495h-52.501 C33.6413,120.9661,29.8452,118.7744,27.7911,115.2166z"/></defs><clipPath id="SVGID_2_"><use xlink:href="#SVGID_5_" style="overflow:visible"/></clipPath><polygon style="opacity:.07;clip-path:url(#SVGID_2_)" points="122.708 77.958 80.333 35.583 64.125 39.458 47.625 35.666 55.833 43.875 42.05 58.197 44.55 60.697 42.16 66.577 47.16 71.577 42.063 76.771 54.75 89.458 47.643 92.591 77.13 122.078 97.667 122.041"/></g></g><g id="art"><g><g><circle style="fill:#fff" cx="83.157" cy="64.148" r="3.575"/><circle style="fill:#fff" cx="44.843" cy="64.148" r="3.575"/></g><g><circle style="fill:#fff" cx="64" cy="58.786" r="3.575"/><circle style="fill:#fff" cx="64" cy="69.51" r="3.575"/></g><polygon style="fill:#fff" points="69.389 41.987 80.37 35.647 75.055 32.578 74.908 32.578 64.001 38.876 64 38.876 64 38.876 53.093 32.578 52.946 32.578 47.631 35.647 58.612 41.987 42.05 51.496 42.05 58.197 47.7 58.197 47.7 54.607 61.282 46.667 61.282 52.499 66.718 52.499 66.718 46.667 80.275 54.607 80.275 58.197 85.95 58.197 85.95 51.496"/><polygon style="fill:#fff" points="80.275 73.626 66.718 81.566 66.718 75.802 61.282 75.802 61.282 81.566 47.7 73.626 47.7 70.035 42.05 70.035 42.05 76.737 58.627 86.255 47.631 92.603 52.945 95.672 53.093 95.672 64 89.374 74.908 95.672 75.055 95.672 80.37 92.603 69.374 86.255 85.95 76.737 85.95 70.035 80.275 70.035"/></g></g></svg>