<svg xmlns="http://www.w3.org/2000/svg" xmlns:xlink="http://www.w3.org/1999/xlink" width="128" height="128" x="0" y="0" version="1.1" viewBox="0 0 128 128" xml:space="preserve" style="enable-background:new 0 0 128 128"><g id="BASE"><linearGradient id="SVGID_1_" x1="64" x2="64" y1="7.034" y2="120.789" gradientUnits="userSpaceOnUse"><stop offset="0" style="stop-color:#4387fd"/><stop offset="1" style="stop-color:#4683ea"/></linearGradient><path style="fill:url(#SVGID_1_)" d="M27.7906,115.2166L1.54,69.7493c-2.0541-3.5578-2.0541-7.9412,0-11.499l26.2506-45.4672 c2.0541-3.5578,5.8503-5.7495,9.9585-5.7495h52.5012c4.1082,0,7.9044,2.1917,9.9585,5.7495l26.2506,45.4672 c2.0541,3.5578,2.0541,7.9412,0,11.499l-26.2506,45.4672c-2.0541,3.5578-5.8503,5.7495-9.9585,5.7495H37.7491 C33.6409,120.9661,29.8448,118.7744,27.7906,115.2166z"/></g><g id="shadow"><g><defs><path id="SVGID_6_" d="M27.7911,115.2166L1.5406,69.7493c-2.0541-3.5578-2.0541-7.9412,0-11.499l26.2505-45.4672 c2.0541-3.5578,5.8502-5.7495,9.9585-5.7495h52.501c4.1082,0,7.9044,2.1917,9.9585,5.7495l26.2505,45.4672 c2.0541,3.5578,2.0541,7.9412,0,11.499l-26.2505,45.4672c-2.0541,3.5578-5.8502,5.7495-9.9585,5.7495h-52.501 C33.6413,120.9661,29.8452,118.7744,27.7911,115.2166z"/></defs><clipPath id="SVGID_2_"><use xlink:href="#SVGID_6_" style="overflow:visible"/></clipPath><polygon style="opacity:.07;clip-path:url(#SVGID_2_)" points="121.054 79.581 89.218 47.745 83.36 48.96 68.757 34.358 64.085 43.097 61.55 53.206 65.839 57.495 57.601 59.178 46.305 47.882 38.635 55.255 52.758 69.379 37.789 81.278 77.981 121.471 97.563 121.281"/></g></g><g id="art"><g><circle style="fill:#fff" cx="85.519" cy="51.576" r="5.324"/><circle style="fill:#fff" cx="42.48" cy="51.576" r="5.324"/><circle style="fill:#fff" cx="64" cy="88.849" r="5.325"/><defs><filter id="Adobe_OpacityMaskFilter" width="45.497" height="39.401" x="41.252" y="39.151" filterUnits="userSpaceOnUse"><feFlood style="flood-color:white;flood-opacity:1" result="back"/><feBlend in="SourceGraphic" in2="back" mode="normal"/></filter></defs><mask id="SVGID_3_" width="45.497" height="39.401" x="41.252" y="39.151" maskUnits="userSpaceOnUse"><g style="filter:url(#Adobe_OpacityMaskFilter)"><circle cx="64" cy="64" r="11.06"/></g></mask><g style="mask:url(#SVGID_3_)"><g><rect style="fill:#fff" width="24.849" height="4.916" x="62.336" y="67.754" transform="matrix(0.866 0.5 -0.5 0.866 45.122 -27.9732)"/></g><g><rect style="fill:#fff" width="24.849" height="4.916" x="40.816" y="67.754" transform="matrix(-0.866 0.5 -0.5 -0.866 134.4537 104.3976)"/></g><g><rect style="fill:#fff" width="4.916" height="24.849" x="61.542" y="39.151"/></g></g><circle style="fill:#fff" cx="64" cy="64" r="8.602"/><circle style="fill:#fff" cx="42.48" cy="76.424" r="6.758"/><circle style="fill:#fff" cx="85.519" cy="76.424" r="6.758"/><circle style="fill:#fff" cx="64" cy="39.151" r="6.759"/></g></g></svg>