<svg xmlns="http://www.w3.org/2000/svg" xmlns:xlink="http://www.w3.org/1999/xlink" width="128" height="128" x="0" y="0" version="1.1" viewBox="0 0 128 128" xml:space="preserve" style="enable-background:new 0 0 128 128"><g id="BASE"><linearGradient id="SVGID_1_" x1="64" x2="64" y1="7.034" y2="120.789" gradientUnits="userSpaceOnUse"><stop offset="0" style="stop-color:#4387fd"/><stop offset="1" style="stop-color:#4683ea"/></linearGradient><path style="fill:url(#SVGID_1_)" d="M27.7906,115.2166L1.54,69.7493c-2.0541-3.5578-2.0541-7.9412,0-11.499l26.2506-45.4672 c2.0542-3.5578,5.8503-5.7495,9.9585-5.7495h52.5012c4.1082,0,7.9044,2.1917,9.9585,5.7495l26.2506,45.4672 c2.0541,3.5578,2.0541,7.9412,0,11.499l-26.2506,45.4673c-2.0541,3.5578-5.8503,5.7495-9.9585,5.7495H37.7491 C33.6409,120.9661,29.8448,118.7744,27.7906,115.2166z"/></g><g id="shadow"><g><defs><path id="SVGID_5_" d="M27.7911,115.2166L1.5406,69.7493c-2.0541-3.5578-2.0541-7.9412,0-11.499l26.2505-45.4672 c2.0541-3.5578,5.8502-5.7495,9.9584-5.7495h52.501c4.1082,0,7.9043,2.1917,9.9584,5.7495l26.2505,45.4672 c2.0541,3.5578,2.0541,7.9412,0,11.499l-26.2505,45.4673c-2.0541,3.5578-5.8502,5.7495-9.9584,5.7495h-52.501 C33.6413,120.9661,29.8452,118.7744,27.7911,115.2166z"/></defs><clipPath id="SVGID_2_"><use xlink:href="#SVGID_5_" style="overflow:visible"/></clipPath><polygon style="opacity:.07;clip-path:url(#SVGID_2_)" points="125.354 74.073 88.021 36.739 82.75 42.687 78.594 39.416 64.125 39.364 40.656 41.479 50.167 50.989 48.753 55.197 67.832 74.277 57.422 75.078 53.879 72.295 48.172 77.927 59.458 89.213 49.328 88.556 45.609 85.594 40.167 91.458 70.724 122.016 97.667 121.948"/></g></g><g id="art"><g><polygon style="fill:#fff" points="52.944 54.791 68.869 54.791 70.716 52.944 68.869 51.101 52.944 51.101"/><circle style="fill:#fff" cx="50.829" cy="52.943" r="3.075"/><circle style="fill:#fff" cx="77.171" cy="52.943" r="3.998"/></g><g><polygon style="fill:#fff" points="57.402 75.058 59.248 76.904 74.942 76.904 74.942 73.214 59.248 73.214"/><circle style="fill:#fff" cx="50.983" cy="75.056" r="3.998"/><circle style="fill:#fff" cx="77.094" cy="75.056" r="3.075"/></g><g><polygon style="fill:#fff" points="45.043 41.272 76.747 41.272 78.593 39.427 76.747 37.585 45.043 37.582"/><circle style="fill:#fff" cx="42.96" cy="39.427" r="3.075"/><circle style="fill:#fff" cx="85.049" cy="39.427" r="3.998"/></g><g><polygon style="fill:#fff" points="49.323 88.573 51.167 90.418 82.91 90.418 82.91 86.731 51.167 86.728"/><circle style="fill:#fff" cx="42.935" cy="88.573" r="3.998"/><circle style="fill:#fff" cx="85.062" cy="88.573" r="3.075"/></g><g><circle style="fill:#fff" cx="64" cy="64" r="3.998"/></g></g></svg>