<svg xmlns="http://www.w3.org/2000/svg" xmlns:xlink="http://www.w3.org/1999/xlink" width="128" height="128" x="0" y="0" version="1.1" viewBox="0 0 128 128" xml:space="preserve" style="enable-background:new 0 0 128 128"><g id="BASE"><linearGradient id="SVGID_1_" x1="64" x2="64" y1="7.034" y2="120.789" gradientUnits="userSpaceOnUse"><stop offset="0" style="stop-color:#4387fd"/><stop offset="1" style="stop-color:#4683ea"/></linearGradient><path style="fill:url(#SVGID_1_)" d="M27.7906,115.2166L1.54,69.7493c-2.0541-3.5578-2.0541-7.9412,0-11.499l26.2506-45.4672 c2.0541-3.5578,5.8503-5.7495,9.9585-5.7495h52.5012c4.1082,0,7.9044,2.1917,9.9585,5.7495l26.2506,45.4672 c2.0541,3.5578,2.0541,7.9412,0,11.499l-26.2506,45.4672c-2.0541,3.5578-5.8503,5.7495-9.9585,5.7495H37.7491 C33.6409,120.9661,29.8448,118.7744,27.7906,115.2166z"/></g><g id="shadow"><g><defs><path id="SVGID_5_" d="M27.7908,115.2166L1.5403,69.7493c-2.0541-3.5578-2.0541-7.9412,0-11.499l26.2505-45.4672 c2.0541-3.5578,5.8502-5.7495,9.9585-5.7495h52.501c4.1082,0,7.9044,2.1917,9.9585,5.7495l26.2505,45.4672 c2.0541,3.5578,2.0541,7.9412,0,11.499l-26.2505,45.4672c-2.0541,3.5578-5.8502,5.7495-9.9585,5.7495h-52.501 C33.641,120.9661,29.8449,118.7744,27.7908,115.2166z"/></defs><clipPath id="SVGID_2_"><use xlink:href="#SVGID_5_" style="overflow:visible"/></clipPath><polygon style="opacity:.07;clip-path:url(#SVGID_2_)" points="128 68.716 94.612 35.328 69.557 77.875 56.127 53.844 37.445 81.568 79.376 123.499 97.625 123.625"/></g></g><g id="art"><g><g><g><g><polygon style="fill:#fff" points="43.645 78.353 39.966 76.146 56.09 49.27 71.567 75.404 67.876 77.591 56.066 57.65"/></g><g><g><circle style="fill:#fff" cx="69.558" cy="76.219" r="6.453"/></g></g><g><g><circle style="fill:#fff" cx="41.972" cy="76.973" r="6.453"/></g></g></g><g><g><path style="fill:#fff" d="M77.4757,68.716l-3.6971-2.1767l2.8618-4.8622l3.6976,2.1768L77.4757,68.716z M82.6797,59.8754 l-3.6983-2.1756l2.8618-4.8622l3.6977,2.1756L82.6797,59.8754z M87.8819,51.0359l-3.697-2.1768l2.8622-4.8622l3.6971,2.1768 L87.8819,51.0359z"/></g><g><g><polygon style="fill:#fff" points="94.564 48.53 94.674 35.267 83.132 41.801"/></g></g></g></g></g></g></svg>