<svg xmlns="http://www.w3.org/2000/svg" xmlns:xlink="http://www.w3.org/1999/xlink" width="128" height="128" viewBox="0 0 128 128"><defs><linearGradient id="a" x1="64" x2="64" y1="7.034" y2="120.789" gradientUnits="userSpaceOnUse"><stop offset="0" stop-color="#4387fd"/><stop offset="1" stop-color="#4683ea"/></linearGradient><clipPath id="b"><path fill="none" d="M27.7911,115.2167L1.5406,69.75a11.499,11.499,0,0,1,0-11.499l26.25-45.4672a11.499,11.499,0,0,1,9.9585-5.75H90.25a11.499,11.499,0,0,1,9.9585,5.75l26.25,45.4672a11.499,11.499,0,0,1,0,11.499l-26.25,45.4672a11.499,11.499,0,0,1-9.9585,5.75H37.75A11.499,11.499,0,0,1,27.7911,115.2167Z"/></clipPath></defs><title>Innerconnect</title><path fill="url(#a)" d="M27.7906,115.2166L1.54,69.7493a11.499,11.499,0,0,1,0-11.499L27.7906,12.7831a11.4991,11.4991,0,0,1,9.9585-5.75H90.25a11.4991,11.4991,0,0,1,9.9585,5.75L126.4594,58.25a11.499,11.499,0,0,1,0,11.499l-26.2506,45.4672a11.4991,11.4991,0,0,1-9.9585,5.75H37.7491A11.4991,11.4991,0,0,1,27.7906,115.2166Z"/><g clip-path="url(#b)"><polygon points="122.438 81.104 80.656 39.323 50.079 44.921 58.283 53.091 42.75 62.5 33.063 66.979 51.948 85.865 50.187 85.687 50.75 86.25 50.219 88.719 85.417 123.917 100 122 122.438 81.104" opacity=".07"/></g><rect width="13.5" height="6" x="79.5" y="61" fill="#fff"/><rect width="6" height="38" x="75" y="45" fill="#fff"/><rect width="12" height="6" x="33" y="61" fill="#fff"/><path fill="#fff" d="M51.0445,39H79.9555A1.0445,1.0445,0,0,1,81,40.0445V45a0,0,0,0,1,0,0H50a0,0,0,0,1,0,0V40.0445A1.0445,1.0445,0,0,1,51.0445,39Z"/><path fill="#fff" d="M50,83H81a0,0,0,0,1,0,0v4.9555A1.0445,1.0445,0,0,1,79.9555,89H51.0445A1.0445,1.0445,0,0,1,50,87.9555V83a0,0,0,0,1,0,0Z"/><rect width="24" height="24" x="44" y="52" fill="#fff" rx=".889" ry=".889"/></svg>