<svg xmlns="http://www.w3.org/2000/svg" xmlns:xlink="http://www.w3.org/1999/xlink" width="128" height="128" x="0" y="0" version="1.1" viewBox="0 0 128 128" xml:space="preserve" style="enable-background:new 0 0 128 128"><g id="BASE"><linearGradient id="SVGID_1_" x1="64" x2="64" y1="7.034" y2="120.789" gradientUnits="userSpaceOnUse"><stop offset="0" style="stop-color:#4387fd"/><stop offset="1" style="stop-color:#4683ea"/></linearGradient><path style="fill:url(#SVGID_1_)" d="M27.7906,115.2166L1.54,69.7493c-2.0541-3.5578-2.0541-7.9412,0-11.499l26.2506-45.4672 c2.0541-3.5578,5.8503-5.7495,9.9585-5.7495h52.5012c4.1082,0,7.9044,2.1917,9.9585,5.7495l26.2506,45.4672 c2.0541,3.5578,2.0541,7.9412,0,11.499l-26.2506,45.4672c-2.0541,3.5578-5.8503,5.7495-9.9585,5.7495H37.7491 C33.6409,120.9661,29.8448,118.7744,27.7906,115.2166z"/></g><g id="shadow"><g><defs><path id="SVGID_5_" d="M27.7911,115.2166L1.5406,69.7493c-2.0541-3.5578-2.0541-7.9412,0-11.499l26.2505-45.4672 c2.0541-3.5578,5.8502-5.7495,9.9585-5.7495h52.501c4.1082,0,7.9044,2.1917,9.9585,5.7495l26.2505,45.4672 c2.0541,3.5578,2.0541,7.9412,0,11.499l-26.2505,45.4672c-2.0541,3.5578-5.8502,5.7495-9.9585,5.7495h-52.501 C33.6413,120.9661,29.8452,118.7744,27.7911,115.2166z"/></defs><clipPath id="SVGID_2_"><use xlink:href="#SVGID_5_" style="overflow:visible"/></clipPath><polygon style="opacity:.07;clip-path:url(#SVGID_2_)" points="118.938 84 85.488 50.55 49.313 53.875 42.302 60.864 48.26 66.823 42.362 77.299 86.997 121.935 97.813 121.937"/></g></g><g id="art"><g><path style="fill:#fff" d="M84.6999,50.2691l-41.436,0.0012c-0.6672,0-1.2129,0.5457-1.2129,1.2129l0.0012,8.5663 c0,0.6658,0.5457,1.2117,1.2117,1.2117h41.4349c0.6671,0,1.2128-0.5458,1.2128-1.2117V51.482 C85.9115,50.816,85.3669,50.2691,84.6999,50.2691 M78.2839,58.2442c-1.3669,0-2.4754-1.114-2.4779-2.4797 c0.0025-1.3718,1.1073-2.4772,2.4779-2.4772c1.3694,0,2.4791,1.1031,2.4791,2.4772 C80.763,57.1327,79.6533,58.2442,78.2839,58.2442"/><path style="fill:#fff" d="M84.6999,66.7361l-41.436,0.0012c-0.6672,0-1.2129,0.5463-1.2129,1.2146l0.0012,8.5646 c0,0.6658,0.5457,1.2129,1.2117,1.2129h41.4349c0.6671,0,1.2128-0.5471,1.2128-1.2129v-8.5665 C85.9115,67.2837,85.3669,66.7361,84.6999,66.7361 M78.2839,74.7113c-1.3669,0-2.4754-1.1134-2.4779-2.4797 c0.0025-1.3717,1.1073-2.4766,2.4779-2.4766c1.3694,0,2.4791,1.1042,2.4791,2.4766 C80.763,73.6014,79.6533,74.7113,78.2839,74.7113"/></g></g></svg>