<svg xmlns="http://www.w3.org/2000/svg" xmlns:xlink="http://www.w3.org/1999/xlink" width="128" height="128" x="0" y="0" version="1.1" viewBox="0 0 128 128" xml:space="preserve" style="enable-background:new 0 0 128 128"><g id="BASE"><linearGradient id="SVGID_1_" x1="64" x2="64" y1="7.034" y2="120.789" gradientUnits="userSpaceOnUse"><stop offset="0" style="stop-color:#4387fd"/><stop offset="1" style="stop-color:#4683ea"/></linearGradient><path style="fill:url(#SVGID_1_)" d="M27.7906,115.2166L1.54,69.7493c-2.0541-3.5578-2.0541-7.9412,0-11.499l26.2506-45.4672 c2.0541-3.5578,5.8503-5.7495,9.9585-5.7495h52.5012c4.1082,0,7.9044,2.1917,9.9585,5.7495l26.2506,45.4672 c2.0541,3.5578,2.0541,7.9412,0,11.499l-26.2506,45.4672c-2.0541,3.5578-5.8503,5.7495-9.9585,5.7495H37.7491 C33.6409,120.9661,29.8448,118.7744,27.7906,115.2166z"/></g><g id="shadow"><g><defs><path id="SVGID_5_" d="M27.7908,115.2166L1.5403,69.7493c-2.0541-3.5578-2.0541-7.9412,0-11.499l26.2505-45.4672 c2.0541-3.5578,5.8502-5.7495,9.9585-5.7495h52.501c4.1082,0,7.9044,2.1917,9.9585,5.7495l26.2505,45.4672 c2.0541,3.5578,2.0541,7.9412,0,11.499l-26.2505,45.4672c-2.0541,3.5578-5.8502,5.7495-9.9585,5.7495h-52.501 C33.641,120.9661,29.8449,118.7744,27.7908,115.2166z"/></defs><clipPath id="SVGID_2_"><use xlink:href="#SVGID_5_" style="overflow:visible"/></clipPath><polygon style="opacity:.07;clip-path:url(#SVGID_2_)" points="120.156 85.344 85.512 50.7 76 51.458 76.041 57.625 69.057 50.641 59.833 51.687 59.812 57.791 52.708 50.687 42.479 60.937 48.833 67.292 42.666 67.521 42.523 77.377 86.739 121.594 97.562 121.281"/></g></g><g id="art"><g><path style="fill:#fff" d="M51.8435,50.316l-8.5106,0.0019c-0.6654,0-1.2098,0.5456-1.2098,1.2092v8.5432 c0,0.6655,0.5456,1.211,1.2109,1.211h8.5083c0.6654,0,1.2098-0.5456,1.2098-1.211v-8.5432 C53.0521,50.8634,52.5089,50.316,51.8435,50.316"/><path style="fill:#fff" d="M68.2539,66.7191l-8.5107,0.0006c-0.6654,0-1.2097,0.5449-1.2097,1.2086l0.0012,8.5457 c0,0.6641,0.5443,1.2086,1.2097,1.2086h8.5083c0.6654,0,1.2109-0.5444,1.2109-1.2086l0.0012-8.5457 C69.4648,67.2646,68.9193,66.7191,68.2539,66.7191"/><path style="fill:#fff" d="M84.6667,66.7191l-8.5106,0.0006c-0.6654,0-1.2086,0.5449-1.2086,1.2086v8.5457 c0,0.6641,0.5443,1.2086,1.2097,1.2086h8.5083c0.6654,0,1.2109-0.5444,1.2109-1.2086l0.0012-8.5457 C85.8776,67.2646,85.332,66.7191,84.6667,66.7191"/><path style="fill:#fff" d="M51.8435,66.7191l-8.5106,0.0019c-0.6654,0-1.211,0.5456-1.211,1.2092l0.0012,8.5451 c0,0.6642,0.5456,1.2086,1.2109,1.2086h8.5083c0.663,0,1.2086-0.5443,1.2086-1.2086l0.0012-8.5457 C53.0521,67.2665,52.5064,66.7191,51.8435,66.7191 M50.6266,75.2406h-6.0791v-6.079h6.0791V75.2406z"/><path style="fill:#fff" d="M68.255,50.316l-8.5106,0.0019c-0.6654,0-1.2097,0.5456-1.2097,1.2092v8.5451 c0,0.6636,0.5456,1.2092,1.2109,1.2092h8.5083c0.6641,0,1.2097-0.5456,1.2097-1.2092v-8.5451 C69.4636,50.8634,68.9193,50.316,68.255,50.316 M67.0381,58.8375h-6.079v-6.0778h6.079V58.8375z"/><path style="fill:#fff" d="M84.6679,50.316l-8.5107,0.0019c-0.6665,0-1.2109,0.5456-1.2109,1.2092l0.0012,8.5451 c0,0.6636,0.5456,1.2092,1.2109,1.2092h8.507c0.6654,0,1.2098-0.5456,1.2098-1.2092l0.0011-8.5451 C85.8763,50.8634,85.3308,50.316,84.6679,50.316 M83.4508,58.8375h-6.079v-6.0778h6.079V58.8375z"/></g></g></svg>