<svg xmlns="http://www.w3.org/2000/svg" xmlns:xlink="http://www.w3.org/1999/xlink" width="128" height="128" x="0" y="0" version="1.1" viewBox="0 0 128 128" xml:space="preserve" style="enable-background:new 0 0 128 128"><g id="BASE"><linearGradient id="SVGID_1_" x1="64" x2="64" y1="7.034" y2="120.789" gradientUnits="userSpaceOnUse"><stop offset="0" style="stop-color:#4387fd"/><stop offset="1" style="stop-color:#4683ea"/></linearGradient><path style="fill:url(#SVGID_1_)" d="M27.7906,115.2166L1.54,69.7493c-2.0541-3.5578-2.0541-7.9412,0-11.499l26.2506-45.4672 c2.0542-3.5578,5.8503-5.7495,9.9585-5.7495h52.5012c4.1082,0,7.9044,2.1917,9.9585,5.7495l26.2506,45.4672 c2.0541,3.5578,2.0541,7.9412,0,11.499l-26.2506,45.4673c-2.0541,3.5578-5.8503,5.7495-9.9585,5.7495H37.7491 C33.6409,120.9661,29.8448,118.7744,27.7906,115.2166z"/></g><g id="shadow"><g><defs><path id="SVGID_5_" d="M27.7908,115.2166L1.5403,69.7494c-2.0541-3.5578-2.0541-7.9412,0-11.499l26.2505-45.4672 c2.0541-3.5578,5.8502-5.7495,9.9585-5.7495h52.5009c4.1082,0,7.9044,2.1917,9.9585,5.7495l26.2505,45.4672 c2.0541,3.5578,2.0541,7.9412,0,11.499l-26.2505,45.4672c-2.0541,3.5578-5.8502,5.7495-9.9585,5.7495H37.7492 C33.641,120.9661,29.8449,118.7744,27.7908,115.2166z"/></defs><clipPath id="SVGID_2_"><use xlink:href="#SVGID_5_" style="overflow:visible"/></clipPath><polygon style="opacity:.07;clip-path:url(#SVGID_2_)" points="120.437 81.583 64.593 25.739 61.145 29.239 69.796 37.89 65.805 38.837 74.406 48.312 71.35 49.017 61.018 38.685 57.486 42.08 64.855 49.449 58.202 49.368 53.797 51.943 58.161 56.307 43.833 81.187 47.973 92.275 77.588 121.891 97.667 121.948"/></g></g><g id="art"><circle style="fill:#fff" cx="59.137" cy="40.257" r="2.453"/><circle style="fill:#fff" cx="68.392" cy="36.22" r="3.68"/><circle style="fill:#fff" cx="62.816" cy="27.43" r="2.453"/><g><g><path style="fill:#fff" d="M73.145,82l-1.7321-3h11.859L71.4726,58.5638l-0.411,0.0029L81.2141,76H54.8139l-3.1635,5.4793 c-0.2191,0.3795-0.2191,0.847,0,1.2265l3.849,6.6668h25.354l4.204-7.28L85.004,82H73.145z"/></g></g><path style="fill:#fff" d="M85.5259,80.7308L72.1367,57.5402c-0.1077-0.1864-0.1643-0.398-0.1643-0.6133V52h1.953 c0.2762,0,0.5-0.2199,0.5-0.496v-2.8254c0-0.2761-0.2238-0.5-0.5-0.5H54.0746c-0.2761,0-0.5,0.2239-0.5,0.5v2.8254 c0,0.2761,0.2239,0.496,0.5,0.496h1.953v4.927c0,0.2153-0.0567,0.4268-0.1643,0.6133L42.4741,80.7308 c-0.4382,0.759-0.4382,1.6941,0,2.453l4.8921,8.4734c0.4382,0.759,1.248,1.2265,2.1244,1.2265h29.0188 c0.8764,0,1.6862-0.4675,2.1244-1.2265l4.8921-8.4734C85.9641,82.4249,85.9641,81.4898,85.5259,80.7308z M81.3477,82.4672 l-3.3338,5.7745c-0.2191,0.3795-0.624,0.6133-1.0622,0.6133H51.0485c-0.4382,0-0.8431-0.2337-1.0622-0.6132l-3.3343-5.7745 c-0.2191-0.3795-0.2191-0.8471,0-1.2266l12.9719-22.4675c0.2153-0.3729,0.3286-0.7959,0.3286-1.2265V52h8.0946v5.5466 c0,0.4306,0.1133,0.8536,0.3286,1.2265l12.9719,22.4676C81.5668,81.6202,81.5668,82.0877,81.3477,82.4672z"/><polygon style="fill:#fff" points="63.547 65.95 75.516 65.95 73.718 63.109 61.907 63.109"/><polygon style="fill:#fff" points="66 70 67.715 72.97 79.927 72.97 78.165 70"/></g></svg>